<svg preserveAspectRatio="none" overflow="visible" style="display: block;" width="9.69231" height="9.69231" viewBox="0 0 9.69231 9.69231" fill="none" xmlns="http://www.w3.org/2000/svg">
<g id="Icon" clip-path="url(#clip0_0_4)">
<path id="Vector" d="M7.26923 3.23077C7.93834 3.23077 8.48077 2.68834 8.48077 2.01923C8.48077 1.35012 7.93834 0.807691 7.26923 0.807691C6.60012 0.807691 6.05769 1.35012 6.05769 2.01923C6.05769 2.68834 6.60012 3.23077 7.26923 3.23077Z" stroke="#1F2933" stroke-width="0.807692" stroke-linecap="round" stroke-linejoin="round"/>
<path id="Vector_2" d="M2.42307 6.05769C3.09219 6.05769 3.63461 5.51527 3.63461 4.84615C3.63461 4.17704 3.09219 3.63461 2.42307 3.63461C1.75396 3.63461 1.21154 4.17704 1.21154 4.84615C1.21154 5.51527 1.75396 6.05769 2.42307 6.05769Z" stroke="#1F2933" stroke-width="0.807692" stroke-linecap="round" stroke-linejoin="round"/>
<path id="Vector_3" d="M7.26923 8.88462C7.93834 8.88462 8.48077 8.34219 8.48077 7.67308C8.48077 7.00396 7.93834 6.46154 7.26923 6.46154C6.60012 6.46154 6.05769 7.00396 6.05769 7.67308C6.05769 8.34219 6.60012 8.88462 7.26923 8.88462Z" stroke="#1F2933" stroke-width="0.807692" stroke-linecap="round" stroke-linejoin="round"/>
<path id="Vector_4" d="M3.46903 5.45597L6.2273 7.06327" stroke="#1F2933" stroke-width="0.807692" stroke-linecap="round" stroke-linejoin="round"/>
<path id="Vector_5" d="M6.22326 2.62904L3.46903 4.23635" stroke="#1F2933" stroke-width="0.807692" stroke-linecap="round" stroke-linejoin="round"/>
</g>
<defs>
<clipPath id="clip0_0_4">
<rect width="9.69231" height="9.69231" fill="white"/>
</clipPath>
</defs>
</svg>
